# xmcd
#
# Track frame offsets:
#	150
#	15396
#	30636
#	50516
#	68311
#	85144
#	103301
#	116122
#	141134
#	164728
#	185142
#	212591
#	228237
#	247259
#	259597
#	278726
#	294954
#	314938
#
# Disc length: 4413 seconds
#
# Revision: 1
# Processed by: cddbd v1.4PL0 Copyright (c) Steve Scherf et al.
# Submitted via: audiograbber 1.80
#
DISCID=0c113b12
DTITLE=Moby - Greatest Hits 2000
DYEAR=1900
DGENRE=
TTITLE0=Feeling So Real
TTITLE1=James Bond Theme
TTITLE2=Why Does My Heart Feel So Bad
TTITLE3=That s When I Reach For My Revolver
TTITLE4=Rock The House
TTITLE5=Go
TTITLE6=Someone to Love
TTITLE7=Into The Blue
TTITLE8=UHF3
TTITLE9=New Down Fades
TTITLE10=Say It s All Mine
TTITLE11=Anthem
TTITLE12=Natural Blues
TTITLE13=All That I Need Is To Be Loved
TTITLE14=When It s Cold I d Like To Die
TTITLE15=Bodyrock
TTITLE16=First Cool Hive
TTITLE17=Come On Baby
EXTD=
EXTT0=
EXTT1=
EXTT2=
EXTT3=
EXTT4=
EXTT5=
EXTT6=
EXTT7=
EXTT8=
EXTT9=
EXTT10=
EXTT11=
EXTT12=
EXTT13=
EXTT14=
EXTT15=
EXTT16=
EXTT17=
PLAYORDER=
